# xmcd
#
# Track frame offsets:
#	150
#	16841
#	32791
#	43164
#	53712
#	71927
#	87031
#	100227
#	115036
#	127458
#	139372
#	153635
#
# Disc length: 2241 seconds
#
# Revision: 3
# Processed by: cddbd v1.5.2PL0 Copyright (c) Steve Scherf et al.
# Submitted via: audiograbber 1.83.01
#
DISCID=ac08bf0c
DTITLE=Wetwood - Dave's Triad
DYEAR=2007
DGENRE=Country
TTITLE0=Foolish man
TTITLE1=Only a question of time
TTITLE2=Sound of your voice
TTITLE3=Westwood breakdown
TTITLE4=Without you
TTITLE5=The best days of your life
TTITLE6=Want me to come back
TTITLE7=The Blues
TTITLE8=Same old sound
TTITLE9=Winter morning
TTITLE10=Good-bye
TTITLE11=Seein 'em cry
EXTD=
EXTT0=
EXTT1=
EXTT2=
EXTT3=
EXTT4=
EXTT5=
EXTT6=
EXTT7=
EXTT8=
EXTT9=
EXTT10=
EXTT11=
PLAYORDER=
